<svg width="26" height="25" viewBox="0 0 26 25" fill="none" xmlns="http://www.w3.org/2000/svg">
<mask id="mask0_988_48" style="mask-type:alpha" maskUnits="userSpaceOnUse" x="0" y="0" width="26" height="25">
<rect width="25.0729" height="25" fill="white"/>
</mask>
<g mask="url(#mask0_988_48)">
<path fill-rule="evenodd" clip-rule="evenodd" d="M12.5364 3.125C9.51557 3.125 7.05174 5.58166 7.05174 8.59375C7.05174 10.4645 8.00666 12.1246 9.45129 13.1104C6.64773 14.3005 4.70116 17.0776 4.70116 20.3125H6.26821C6.26821 16.8243 9.03811 14.0625 12.5364 14.0625C16.0348 14.0625 18.8047 16.8243 18.8047 20.3125H20.3717C20.3717 17.0776 18.4251 14.3005 15.6216 13.1104C17.0662 12.1246 18.0211 10.4645 18.0211 8.59375C18.0211 5.58166 15.5573 3.125 12.5364 3.125V3.125ZM12.5364 4.6875C14.7095 4.6875 16.4541 6.427 16.4541 8.59375C16.4541 10.7605 14.7095 12.5 12.5364 12.5C10.3634 12.5 8.6188 10.7605 8.6188 8.59375C8.6188 6.427 10.3634 4.6875 12.5364 4.6875V4.6875Z" fill="#AEAEAE"/>
</g>
</svg>
